<svg xmlns="http://www.w3.org/2000/svg" width="1080" height="1920"><path d="M464,927L231,980L534,1371Z" fill="#202141" stroke="#202141" stroke-width="1.51"/><path d="M231,980L140,1384L534,1371Z" fill="#313a7f" stroke="#313a7f" stroke-width="1.51"/><path d="M231,980L2,1025L140,1384Z" fill="#272a67" stroke="#272a67" stroke-width="1.51"/><path d="M-41,685L2,1025L231,980Z" fill="#1f1f50" stroke="#1f1f50" stroke-width="1.51"/><path d="M534,1371L858,950L464,927Z" fill="#19182e" stroke="#19182e" stroke-width="1.51"/><path d="M193,1629L610,1612L534,1371Z" fill="#2b326f" stroke="#2b326f" stroke-width="1.51"/><path d="M140,1384L193,1629L534,1371Z" fill="#3a4aa9" stroke="#3a4aa9" stroke-width="1.51"/><path d="M-42,1672L193,1629L140,1384Z" fill="#2f3b9b" stroke="#2f3b9b" stroke-width="1.51"/><path d="M968,1386L858,950L534,1371Z" fill="#2f377c" stroke="#2f377c" stroke-width="1.51"/><path d="M2,1025L-120,1330L140,1384Z" fill="#242971" stroke="#242971" stroke-width="1.51"/><path d="M464,927L112,538L231,980Z" fill="#2f3572" stroke="#2f3572" stroke-width="1.51"/><path d="M747,673L534,595L464,927Z" fill="#1c1d37" stroke="#1c1d37" stroke-width="1.51"/><path d="M858,950L747,673L464,927Z" fill="#1f2042" stroke="#1f2042" stroke-width="1.51"/><path d="M852,1619L968,1386L534,1371Z" fill="#3745a2" stroke="#3745a2" stroke-width="1.51"/><path d="M597,1845L852,1619L610,1612Z" fill="#2c337b" stroke="#2c337b" stroke-width="1.51"/><path d="M610,1612L852,1619L534,1371Z" fill="#2d3478" stroke="#2d3478" stroke-width="1.51"/><path d="M112,538L-41,685L231,980Z" fill="#292e71" stroke="#292e71" stroke-width="1.51"/><path d="M-452,1001L-376,1399L-120,1330Z" fill="#232870" stroke="#232870" stroke-width="1.51"/><path d="M193,1629L597,1845L610,1612Z" fill="#272b65" stroke="#272b65" stroke-width="1.51"/><path d="M-120,1330L-42,1672L140,1384Z" fill="#2a3594" stroke="#2a3594" stroke-width="1.51"/><path d="M534,595L112,538L464,927Z" fill="#2c3168" stroke="#2c3168" stroke-width="1.51"/><path d="M150,2021L597,1845L193,1629Z" fill="#323e97" stroke="#323e97" stroke-width="1.51"/><path d="M-120,1330L-376,1399L-42,1672Z" fill="#2a3594" stroke="#2a3594" stroke-width="1.51"/><path d="M-452,1001L-120,1330L2,1025Z" fill="#1f2059" stroke="#1f2059" stroke-width="1.51"/><path d="M-41,685L-452,1001L2,1025Z" fill="#1b1949" stroke="#1b1949" stroke-width="1.51"/><path d="M-363,531L-452,1001L-41,685Z" fill="#222567" stroke="#222567" stroke-width="1.51"/><path d="M1233,1633L1252,1328L968,1386Z" fill="#313f9f" stroke="#313f9f" stroke-width="1.51"/><path d="M968,1386L1309,1076L858,950Z" fill="#262b68" stroke="#262b68" stroke-width="1.51"/><path d="M1095,554L896,397L747,673Z" fill="#36449f" stroke="#36449f" stroke-width="1.51"/><path d="M1233,1633L968,1386L852,1619Z" fill="#313f9f" stroke="#313f9f" stroke-width="1.51"/><path d="M-42,1672L150,2021L193,1629Z" fill="#2b3796" stroke="#2b3796" stroke-width="1.51"/><path d="M-225,1917L150,2021L-42,1672Z" fill="#222d89" stroke="#222d89" stroke-width="1.51"/><path d="M534,595L156,284L112,538Z" fill="#3f50b4" stroke="#3f50b4" stroke-width="1.51"/><path d="M896,397L584,291L534,595Z" fill="#30387e" stroke="#30387e" stroke-width="1.51"/><path d="M896,397L534,595L747,673Z" fill="#333b84" stroke="#333b84" stroke-width="1.51"/><path d="M112,538L-177,387L-41,685Z" fill="#2b358e" stroke="#2b358e" stroke-width="1.51"/><path d="M584,291L156,284L534,595Z" fill="#2f3678" stroke="#2f3678" stroke-width="1.51"/><path d="M1095,554L747,673L858,950Z" fill="#2e357b" stroke="#2e357b" stroke-width="1.51"/><path d="M1252,1328L1309,1076L968,1386Z" fill="#2a327e" stroke="#2a327e" stroke-width="1.51"/><path d="M1309,1076L1095,554L858,950Z" fill="#22255a" stroke="#22255a" stroke-width="1.51"/><path d="M-376,1399L-481,1545L-42,1672Z" fill="#293492" stroke="#293492" stroke-width="1.51"/><path d="M-452,1001L-481,1545L-376,1399Z" fill="#262d7d" stroke="#262d7d" stroke-width="1.51"/><path d="M1585,1182L1486,989L1309,1076Z" fill="#23265d" stroke="#23265d" stroke-width="1.51"/><path d="M969,2042L1233,1633L852,1619Z" fill="#2d3a99" stroke="#2d3a99" stroke-width="1.51"/><path d="M969,2042L852,1619L597,1845Z" fill="#32409f" stroke="#32409f" stroke-width="1.51"/><path d="M156,284L-177,387L112,538Z" fill="#2c3898" stroke="#2c3898" stroke-width="1.51"/><path d="M-481,1545L-225,1917L-42,1672Z" fill="#25308d" stroke="#25308d" stroke-width="1.51"/><path d="M-177,387L-363,531L-41,685Z" fill="#2b358e" stroke="#2b358e" stroke-width="1.51"/><path d="M842,2283L969,2042L597,1845Z" fill="#303e9c" stroke="#303e9c" stroke-width="1.51"/><path d="M-481,1545L-415,1896L-225,1917Z" fill="#242f8c" stroke="#242f8c" stroke-width="1.51"/><path d="M-225,1917L-33,2235L150,2021Z" fill="#212c88" stroke="#212c88" stroke-width="1.51"/><path d="M1233,1633L1403,1588L1252,1328Z" fill="#2f3d9d" stroke="#2f3d9d" stroke-width="1.51"/><path d="M1562,1892L1403,1588L1233,1633Z" fill="#2c3998" stroke="#2c3998" stroke-width="1.51"/><path d="M1309,1076L1486,989L1095,554Z" fill="#222458" stroke="#222458" stroke-width="1.51"/><path d="M1585,1182L1309,1076L1252,1328Z" fill="#282d71" stroke="#282d71" stroke-width="1.51"/><path d="M576,62L324,62L584,291Z" fill="#212154" stroke="#212154" stroke-width="1.51"/><path d="M584,291L324,62L156,284Z" fill="#2e3887" stroke="#2e3887" stroke-width="1.51"/><path d="M156,284L-139,81L-177,387Z" fill="#242f8c" stroke="#242f8c" stroke-width="1.51"/><path d="M834,88L576,62L584,291Z" fill="#262b6c" stroke="#262b6c" stroke-width="1.51"/><path d="M834,88L584,291L896,397Z" fill="#323d96" stroke="#323d96" stroke-width="1.51"/><path d="M1412,362L1203,344L1095,554Z" fill="#3240a0" stroke="#3240a0" stroke-width="1.51"/><path d="M1095,554L1203,344L896,397Z" fill="#3341a1" stroke="#3341a1" stroke-width="1.51"/><path d="M150,2021L283,2352L597,1845Z" fill="#2e3889" stroke="#2e3889" stroke-width="1.51"/><path d="M-525,2284L-33,2235L-225,1917Z" fill="#212c88" stroke="#212c88" stroke-width="1.51"/><path d="M1203,344L834,88L896,397Z" fill="#303c9c" stroke="#303c9c" stroke-width="1.51"/><path d="M969,2042L1241,1988L1233,1633Z" fill="#283594" stroke="#283594" stroke-width="1.51"/><path d="M1562,1892L1585,1182L1403,1588Z" fill="#2f3c9c" stroke="#2f3c9c" stroke-width="1.51"/><path d="M1403,1588L1585,1182L1252,1328Z" fill="#2e3a91" stroke="#2e3a91" stroke-width="1.51"/><path d="M1486,989L1586,691L1095,554Z" fill="#282e70" stroke="#282e70" stroke-width="1.51"/><path d="M-33,2235L283,2352L150,2021Z" fill="#2b3796" stroke="#2b3796" stroke-width="1.51"/><path d="M969,2042L1269,2341L1241,1988Z" fill="#283593" stroke="#283593" stroke-width="1.51"/><path d="M577,2377L842,2283L597,1845Z" fill="#282d71" stroke="#282d71" stroke-width="1.51"/><path d="M324,62L-139,81L156,284Z" fill="#283391" stroke="#283391" stroke-width="1.51"/><path d="M-177,387L-493,264L-363,531Z" fill="#2a3694" stroke="#2a3694" stroke-width="1.51"/><path d="M283,2352L577,2377L597,1845Z" fill="#22255a" stroke="#22255a" stroke-width="1.51"/><path d="M-139,81L-493,264L-177,387Z" fill="#242e8c" stroke="#242e8c" stroke-width="1.51"/><path d="M-363,531L-493,264L-452,1001Z" fill="#283082" stroke="#283082" stroke-width="1.51"/><path d="M-452,1001L-493,264L-481,1545Z" fill="#191743" stroke="#191743" stroke-width="1.51"/><path d="M1585,1182L1586,691L1486,989Z" fill="#1e1e49" stroke="#1e1e49" stroke-width="1.51"/><path d="M1586,691L1412,362L1095,554Z" fill="#323e98" stroke="#323e98" stroke-width="1.51"/><path d="M1203,344L1182,-51L834,88Z" fill="#273290" stroke="#273290" stroke-width="1.51"/><path d="M1639,2233L1562,1892L1241,1988Z" fill="#283593" stroke="#283593" stroke-width="1.51"/><path d="M1241,1988L1562,1892L1233,1633Z" fill="#2a3695" stroke="#2a3695" stroke-width="1.51"/><path d="M-139,81L-325,-28L-493,264Z" fill="#1f2884" stroke="#1f2884" stroke-width="1.51"/><path d="M-51,-452L-325,-28L-139,81Z" fill="#1a237e" stroke="#1a237e" stroke-width="1.51"/><path d="M200,-285L-139,81L324,62Z" fill="#232d8b" stroke="#232d8b" stroke-width="1.51"/><path d="M576,62L518,-237L324,62Z" fill="#1e1e54" stroke="#1e1e54" stroke-width="1.51"/><path d="M834,88L518,-237L576,62Z" fill="#20215e" stroke="#20215e" stroke-width="1.51"/><path d="M836,-397L518,-237L834,88Z" fill="#252c7a" stroke="#252c7a" stroke-width="1.51"/><path d="M1412,362L1182,-51L1203,344Z" fill="#2a3695" stroke="#2a3695" stroke-width="1.51"/><path d="M283,2352L-525,2284L577,2377Z" fill="#293593" stroke="#293593" stroke-width="1.51"/><path d="M-33,2235L-525,2284L283,2352Z" fill="#212c88" stroke="#212c88" stroke-width="1.51"/><path d="M-415,1896L-525,2284L-225,1917Z" fill="#212c88" stroke="#212c88" stroke-width="1.51"/><path d="M-481,1545L-525,2284L-415,1896Z" fill="#212c89" stroke="#212c89" stroke-width="1.51"/><path d="M-493,264L-525,2284L-481,1545Z" fill="#283086" stroke="#283086" stroke-width="1.51"/><path d="M518,-237L200,-285L324,62Z" fill="#282f7e" stroke="#282f7e" stroke-width="1.51"/><path d="M842,2283L1269,2341L969,2042Z" fill="#2a3795" stroke="#2a3795" stroke-width="1.51"/><path d="M577,2377L1269,2341L842,2283Z" fill="#2e3c9b" stroke="#2e3c9b" stroke-width="1.51"/><path d="M518,-237L836,-397L200,-285Z" fill="#1a1846" stroke="#1a1846" stroke-width="1.51"/><path d="M1182,-51L1187,-240L834,88Z" fill="#222c89" stroke="#222c89" stroke-width="1.51"/><path d="M1611,-100L1187,-240L1182,-51Z" fill="#212c88" stroke="#212c88" stroke-width="1.51"/><path d="M1611,-100L1182,-51L1412,362Z" fill="#242f8c" stroke="#242f8c" stroke-width="1.51"/><path d="M1187,-240L836,-397L834,88Z" fill="#25308e" stroke="#25308e" stroke-width="1.51"/><path d="M1562,1892L1639,2233L1585,1182Z" fill="#2b3896" stroke="#2b3896" stroke-width="1.51"/><path d="M1585,1182L1639,2233L1586,691Z" fill="#2e3a92" stroke="#2e3a92" stroke-width="1.51"/><path d="M1269,2341L1639,2233L1241,1988Z" fill="#283593" stroke="#283593" stroke-width="1.51"/><path d="M200,-285L-51,-452L-139,81Z" fill="#1b247e" stroke="#1b247e" stroke-width="1.51"/><path d="M836,-397L-51,-452L200,-285Z" fill="#293285" stroke="#293285" stroke-width="1.51"/><path d="M1639,2233L1611,-100L1586,691Z" fill="#1f1f4b" stroke="#1f1f4b" stroke-width="1.51"/><path d="M1586,691L1611,-100L1412,362Z" fill="#2e3b9a" stroke="#2e3b9a" stroke-width="1.51"/><path d="M1187,-240L1605,-225L836,-397Z" fill="#212c88" stroke="#212c88" stroke-width="1.51"/><path d="M-51,-452L-458,-408L-325,-28Z" fill="#1a237e" stroke="#1a237e" stroke-width="1.51"/><path d="M-325,-28L-458,-408L-493,264Z" fill="#1a237e" stroke="#1a237e" stroke-width="1.51"/><path d="M1611,-100L1605,-225L1187,-240Z" fill="#212c88" stroke="#212c88" stroke-width="1.51"/></svg>