<svg xmlns="http://www.w3.org/2000/svg" width="1920" height="1080"><path d="M1360,829L1677,1050L1683,847Z" fill="#3342a3" stroke="#3342a3" stroke-width="1.51"/><path d="M1360,829L1185,1134L1677,1050Z" fill="#323f9c" stroke="#323f9c" stroke-width="1.51"/><path d="M1661,379L1287,484L1360,829Z" fill="#262959" stroke="#262959" stroke-width="1.51"/><path d="M870,684L953,1186L1185,1134Z" fill="#212352" stroke="#212352" stroke-width="1.51"/><path d="M1185,1134L1314,1440L1677,1050Z" fill="#2f3b96" stroke="#2f3b96" stroke-width="1.51"/><path d="M1314,1440L1702,1495L1677,1050Z" fill="#2f3c9c" stroke="#2f3c9c" stroke-width="1.51"/><path d="M1677,1050L2111,780L1683,847Z" fill="#303e9e" stroke="#303e9e" stroke-width="1.51"/><path d="M1683,847L1661,379L1360,829Z" fill="#2e367e" stroke="#2e367e" stroke-width="1.51"/><path d="M1185,1134L1043,1451L1314,1440Z" fill="#272c6f" stroke="#272c6f" stroke-width="1.51"/><path d="M870,684L1185,1134L1360,829Z" fill="#2b306f" stroke="#2b306f" stroke-width="1.51"/><path d="M2144,1176L2111,780L1677,1050Z" fill="#2b3896" stroke="#2b3896" stroke-width="1.51"/><path d="M1683,847L2111,780L1661,379Z" fill="#292f72" stroke="#292f72" stroke-width="1.51"/><path d="M1702,1495L2144,1176L1677,1050Z" fill="#2a3695" stroke="#2a3695" stroke-width="1.51"/><path d="M1314,1440L1575,1723L1702,1495Z" fill="#2f3d9c" stroke="#2f3d9c" stroke-width="1.51"/><path d="M953,1186L1043,1451L1185,1134Z" fill="#222459" stroke="#222459" stroke-width="1.51"/><path d="M1287,484L870,684L1360,829Z" fill="#22234b" stroke="#22234b" stroke-width="1.51"/><path d="M2144,1176L2282,1059L2111,780Z" fill="#2b3796" stroke="#2b3796" stroke-width="1.51"/><path d="M1702,1495L2156,1594L2144,1176Z" fill="#283593" stroke="#283593" stroke-width="1.51"/><path d="M2144,1176L2470,1397L2282,1059Z" fill="#283593" stroke="#283593" stroke-width="1.51"/><path d="M1445,1934L1575,1723L1314,1440Z" fill="#313f9f" stroke="#313f9f" stroke-width="1.51"/><path d="M2381,392L2101,382L2111,780Z" fill="#1f204f" stroke="#1f204f" stroke-width="1.51"/><path d="M2111,780L2101,382L1661,379Z" fill="#202150" stroke="#202150" stroke-width="1.51"/><path d="M1287,484L953,312L870,684Z" fill="#14121f" stroke="#14121f" stroke-width="1.51"/><path d="M1289,-68L953,312L1287,484Z" fill="#2f377b" stroke="#2f377b" stroke-width="1.51"/><path d="M1289,-68L1287,484L1661,379Z" fill="#3a4aaa" stroke="#3a4aaa" stroke-width="1.51"/><path d="M2101,382L1810,114L1661,379Z" fill="#33419d" stroke="#33419d" stroke-width="1.51"/><path d="M1043,1451L1027,1706L1314,1440Z" fill="#252965" stroke="#252965" stroke-width="1.51"/><path d="M677,1554L1027,1706L1043,1451Z" fill="#202150" stroke="#202150" stroke-width="1.51"/><path d="M677,1554L1043,1451L953,1186Z" fill="#212354" stroke="#212354" stroke-width="1.51"/><path d="M2162,1722L2156,1594L1702,1495Z" fill="#283593" stroke="#283593" stroke-width="1.51"/><path d="M870,684L571,741L953,1186Z" fill="#2b316e" stroke="#2b316e" stroke-width="1.51"/><path d="M508,473L571,741L870,684Z" fill="#252954" stroke="#252954" stroke-width="1.51"/><path d="M1575,1723L2162,1722L1702,1495Z" fill="#2a3795" stroke="#2a3795" stroke-width="1.51"/><path d="M1027,1706L1445,1934L1314,1440Z" fill="#2a327d" stroke="#2a327d" stroke-width="1.51"/><path d="M2156,1594L2470,1397L2144,1176Z" fill="#283593" stroke="#283593" stroke-width="1.51"/><path d="M1445,1934L2162,1722L1575,1723Z" fill="#2c3998" stroke="#2c3998" stroke-width="1.51"/><path d="M571,741L521,1184L953,1186Z" fill="#2c347e" stroke="#2c347e" stroke-width="1.51"/><path d="M2101,382L2125,42L1810,114Z" fill="#2e3b9a" stroke="#2e3b9a" stroke-width="1.51"/><path d="M2496,599L2381,392L2111,780Z" fill="#212457" stroke="#212457" stroke-width="1.51"/><path d="M953,312L508,473L870,684Z" fill="#1b1b33" stroke="#1b1b33" stroke-width="1.51"/><path d="M1810,114L1289,-68L1661,379Z" fill="#313f9f" stroke="#313f9f" stroke-width="1.51"/><path d="M521,1184L677,1554L953,1186Z" fill="#293075" stroke="#293075" stroke-width="1.51"/><path d="M1027,1706L569,1944L1445,1934Z" fill="#1f2151" stroke="#1f2151" stroke-width="1.51"/><path d="M2732,1115L2496,599L2282,1059Z" fill="#2d3a9a" stroke="#2d3a9a" stroke-width="1.51"/><path d="M2282,1059L2496,599L2111,780Z" fill="#313f9f" stroke="#313f9f" stroke-width="1.51"/><path d="M2560,1778L2470,1397L2156,1594Z" fill="#283593" stroke="#283593" stroke-width="1.51"/><path d="M2381,392L2125,42L2101,382Z" fill="#3442a3" stroke="#3442a3" stroke-width="1.51"/><path d="M1810,114L1368,-240L1289,-68Z" fill="#293593" stroke="#293593" stroke-width="1.51"/><path d="M1289,-68L1012,-26L953,312Z" fill="#22235a" stroke="#22235a" stroke-width="1.51"/><path d="M571,741L324,687L521,1184Z" fill="#3a4aad" stroke="#3a4aad" stroke-width="1.51"/><path d="M616,16L508,473L953,312Z" fill="#353f89" stroke="#353f89" stroke-width="1.51"/><path d="M1673,-364L1368,-240L1810,114Z" fill="#273290" stroke="#273290" stroke-width="1.51"/><path d="M1289,-68L1003,-277L1012,-26Z" fill="#1e1f57" stroke="#1e1f57" stroke-width="1.51"/><path d="M508,473L324,687L571,741Z" fill="#2f3574" stroke="#2f3574" stroke-width="1.51"/><path d="M2470,1397L2732,1115L2282,1059Z" fill="#283593" stroke="#283593" stroke-width="1.51"/><path d="M1012,-26L616,16L953,312Z" fill="#23255a" stroke="#23255a" stroke-width="1.51"/><path d="M508,473L99,331L324,687Z" fill="#26285c" stroke="#26285c" stroke-width="1.51"/><path d="M1003,-277L616,16L1012,-26Z" fill="#1c1b4d" stroke="#1c1b4d" stroke-width="1.51"/><path d="M521,1184L360,1548L677,1554Z" fill="#323f9c" stroke="#323f9c" stroke-width="1.51"/><path d="M677,1554L569,1944L1027,1706Z" fill="#272d6d" stroke="#272d6d" stroke-width="1.51"/><path d="M214,1158L360,1548L521,1184Z" fill="#303d9d" stroke="#303d9d" stroke-width="1.51"/><path d="M2732,1115L2820,771L2496,599Z" fill="#303e9e" stroke="#303e9e" stroke-width="1.51"/><path d="M2693,332L2498,60L2381,392Z" fill="#3342a3" stroke="#3342a3" stroke-width="1.51"/><path d="M2381,392L2498,60L2125,42Z" fill="#2d3a99" stroke="#2d3a99" stroke-width="1.51"/><path d="M1368,-240L1003,-277L1289,-68Z" fill="#23266b" stroke="#23266b" stroke-width="1.51"/><path d="M2192,-236L1673,-364L1810,114Z" fill="#222c89" stroke="#222c89" stroke-width="1.51"/><path d="M324,687L214,1158L521,1184Z" fill="#323f9f" stroke="#323f9f" stroke-width="1.51"/><path d="M2125,42L2192,-236L1810,114Z" fill="#212c88" stroke="#212c88" stroke-width="1.51"/><path d="M2693,332L2381,392L2496,599Z" fill="#262b68" stroke="#262b68" stroke-width="1.51"/><path d="M1673,-364L1003,-277L1368,-240Z" fill="#272f83" stroke="#272f83" stroke-width="1.51"/><path d="M2820,771L2693,332L2496,599Z" fill="#1f2150" stroke="#1f2150" stroke-width="1.51"/><path d="M2470,1397L2787,1377L2732,1115Z" fill="#283593" stroke="#283593" stroke-width="1.51"/><path d="M2162,1722L2560,1778L2156,1594Z" fill="#283593" stroke="#283593" stroke-width="1.51"/><path d="M1445,1934L2560,1778L2162,1722Z" fill="#283593" stroke="#283593" stroke-width="1.51"/><path d="M2560,1778L2787,1377L2470,1397Z" fill="#283593" stroke="#283593" stroke-width="1.51"/><path d="M2732,1115L2787,1377L2820,771Z" fill="#283593" stroke="#283593" stroke-width="1.51"/><path d="M2498,60L2192,-236L2125,42Z" fill="#212c88" stroke="#212c88" stroke-width="1.51"/><path d="M360,1548L569,1944L677,1554Z" fill="#323e98" stroke="#323e98" stroke-width="1.51"/><path d="M2498,60L2293,-307L2192,-236Z" fill="#212c88" stroke="#212c88" stroke-width="1.51"/><path d="M2192,-236L2293,-307L1673,-364Z" fill="#212c88" stroke="#212c88" stroke-width="1.51"/><path d="M2838,-430L2293,-307L2498,60Z" fill="#212c88" stroke="#212c88" stroke-width="1.51"/><path d="M324,687L-166,840L214,1158Z" fill="#2c3997" stroke="#2c3997" stroke-width="1.51"/><path d="M616,16L314,62L508,473Z" fill="#3a49ac" stroke="#3a49ac" stroke-width="1.51"/><path d="M222,-321L314,62L616,16Z" fill="#2a3594" stroke="#2a3594" stroke-width="1.51"/><path d="M2560,1778L2803,1762L2787,1377Z" fill="#283593" stroke="#283593" stroke-width="1.51"/><path d="M2787,1377L2803,1762L2820,771Z" fill="#283593" stroke="#283593" stroke-width="1.51"/><path d="M1445,1934L2803,1762L2560,1778Z" fill="#283593" stroke="#283593" stroke-width="1.51"/><path d="M314,62L99,331L508,473Z" fill="#3745a4" stroke="#3745a4" stroke-width="1.51"/><path d="M2693,332L2839,58L2498,60Z" fill="#2c3897" stroke="#2c3897" stroke-width="1.51"/><path d="M2820,771L2839,58L2693,332Z" fill="#2b327b" stroke="#2b327b" stroke-width="1.51"/><path d="M2803,1762L2839,58L2820,771Z" fill="#2f3d9c" stroke="#2f3d9c" stroke-width="1.51"/><path d="M360,1548L163,1789L569,1944Z" fill="#303d9d" stroke="#303d9d" stroke-width="1.51"/><path d="M-50,1512L163,1789L360,1548Z" fill="#283491" stroke="#283491" stroke-width="1.51"/><path d="M-50,1512L360,1548L214,1158Z" fill="#283492" stroke="#283492" stroke-width="1.51"/><path d="M-210,1181L-50,1512L214,1158Z" fill="#212c88" stroke="#212c88" stroke-width="1.51"/><path d="M99,331L-166,840L324,687Z" fill="#21225b" stroke="#21225b" stroke-width="1.51"/><path d="M99,331L-410,601L-166,840Z" fill="#1c1b4e" stroke="#1c1b4e" stroke-width="1.51"/><path d="M314,62L-61,232L99,331Z" fill="#2e3a99" stroke="#2e3a99" stroke-width="1.51"/><path d="M-236,15L-61,232L314,62Z" fill="#222c89" stroke="#222c89" stroke-width="1.51"/><path d="M-166,840L-210,1181L214,1158Z" fill="#222c89" stroke="#222c89" stroke-width="1.51"/><path d="M1003,-277L476,-484L616,16Z" fill="#24296e" stroke="#24296e" stroke-width="1.51"/><path d="M1673,-364L476,-484L1003,-277Z" fill="#1c1b4e" stroke="#1c1b4e" stroke-width="1.51"/><path d="M2838,-430L476,-484L1673,-364Z" fill="#26318f" stroke="#26318f" stroke-width="1.51"/><path d="M-425,1585L1,1894L-50,1512Z" fill="#212c88" stroke="#212c88" stroke-width="1.51"/><path d="M-50,1512L1,1894L163,1789Z" fill="#232e8a" stroke="#232e8a" stroke-width="1.51"/><path d="M163,1789L1,1894L569,1944Z" fill="#2b3796" stroke="#2b3796" stroke-width="1.51"/><path d="M476,-484L222,-321L616,16Z" fill="#2c3897" stroke="#2c3897" stroke-width="1.51"/><path d="M2293,-307L2838,-430L1673,-364Z" fill="#212c88" stroke="#212c88" stroke-width="1.51"/><path d="M2839,58L2838,-430L2498,60Z" fill="#212c88" stroke="#212c88" stroke-width="1.51"/><path d="M-166,840L-515,1135L-210,1181Z" fill="#222d89" stroke="#222d89" stroke-width="1.51"/><path d="M-210,1181L-425,1585L-50,1512Z" fill="#212c88" stroke="#212c88" stroke-width="1.51"/><path d="M-61,232L-410,601L99,331Z" fill="#252970" stroke="#252970" stroke-width="1.51"/><path d="M-562,307L-410,601L-61,232Z" fill="#252a72" stroke="#252a72" stroke-width="1.51"/><path d="M222,-321L-236,15L314,62Z" fill="#1e2783" stroke="#1e2783" stroke-width="1.51"/><path d="M-410,601L-515,1135L-166,840Z" fill="#293492" stroke="#293492" stroke-width="1.51"/><path d="M-515,1135L-425,1585L-210,1181Z" fill="#212c88" stroke="#212c88" stroke-width="1.51"/><path d="M-410,601L-562,307L-515,1135Z" fill="#22266a" stroke="#22266a" stroke-width="1.51"/><path d="M-236,15L-562,307L-61,232Z" fill="#283290" stroke="#283290" stroke-width="1.51"/><path d="M-106,-423L-365,-18L-236,15Z" fill="#1a237e" stroke="#1a237e" stroke-width="1.51"/><path d="M-106,-423L-236,15L222,-321Z" fill="#1a237e" stroke="#1a237e" stroke-width="1.51"/><path d="M476,-484L-106,-423L222,-321Z" fill="#222c89" stroke="#222c89" stroke-width="1.51"/><path d="M-365,-18L-562,307L-236,15Z" fill="#222b88" stroke="#222b88" stroke-width="1.51"/><path d="M-515,1135L-549,1737L-425,1585Z" fill="#212c88" stroke="#212c88" stroke-width="1.51"/><path d="M-425,1585L-549,1737L1,1894Z" fill="#212c88" stroke="#212c88" stroke-width="1.51"/><path d="M-562,307L-549,1737L-515,1135Z" fill="#222c89" stroke="#222c89" stroke-width="1.51"/><path d="M476,-484L-521,-445L-106,-423Z" fill="#1a237e" stroke="#1a237e" stroke-width="1.51"/><path d="M-106,-423L-521,-445L-365,-18Z" fill="#1a237e" stroke="#1a237e" stroke-width="1.51"/><path d="M-365,-18L-521,-445L-562,307Z" fill="#1a237e" stroke="#1a237e" stroke-width="1.51"/></svg>